<svg xmlns="http://www.w3.org/2000/svg" width="88" height="85" viewBox="0 0 88 85">
  <path id="Path_4413" data-name="Path 4413" d="M-1194.885,1249.427a4.721,4.721,0,0,1-3.291,3.314,5.054,5.054,0,0,1-1.184.136q-39.515.009-79.03,0a4.375,4.375,0,0,1-4.46-4.111,4.381,4.381,0,0,1,4.182-4.735c.4-.027.794-.037,1.32-.061,0-1.28,0-2.533,0-3.786a3.488,3.488,0,0,1,.036-.86,1.235,1.235,0,0,1,1.3-1.028,1.162,1.162,0,0,1,1.236,1.176c.042,1.035.022,2.073.027,3.11,0,.429,0,.857,0,1.37.335.021.611.053.886.053,2.777,0,5.555.021,8.332-.016a2.791,2.791,0,0,0,1.353-.4,45.494,45.494,0,0,1,17.645-6.261c2.061-.286,4.138-.456,6.292-.688a9.9,9.9,0,0,0-1.891-5.118,2.367,2.367,0,0,0-2.449-1.051c-6.264.491-12.166-.566-17.146-4.758a14.931,14.931,0,0,1-5.569-9.234c-.263-1.687.281-2.592,1.923-3.014a18.943,18.943,0,0,1,10.644.627c6.777,2.165,10.99,6.849,13.083,13.607a8.706,8.706,0,0,0,1.165,1.881l.3-.094v-1.584c0-1.959.018-3.918-.017-5.876a1.429,1.429,0,0,0-.383-.961c-5.77-5-7.253-11.248-5.387-18.484a32.526,32.526,0,0,1,5.354-10.913,2.029,2.029,0,0,1,3.515-.01,30.73,30.73,0,0,1,5.887,13.439,16.493,16.493,0,0,1-5.729,15.776,1.446,1.446,0,0,0-.595,1.228c.031,2.5.014,5,.014,7.5l.27.127a11.967,11.967,0,0,0,1.19-2.124c2.612-8.141,8.056-12.944,16.474-14.309a18.893,18.893,0,0,1,6.655.018c2.145.413,2.838,1.377,2.442,3.526-.722,3.92-3.006,6.847-6.024,9.239a21.738,21.738,0,0,1-12.995,4.48,40.483,40.483,0,0,1-4.2-.143,1.394,1.394,0,0,0-1.328.55,11.084,11.084,0,0,0-2.394,5.722c1.7.156,3.344.271,4.984.465a46.669,46.669,0,0,1,18.622,6.269,4.253,4.253,0,0,0,1.989.563c2.6.064,5.211.026,7.817.026h.976c.019-.384.045-.663.045-.942q0-20.177.015-40.353a1.367,1.367,0,0,0-.7-1.32q-17.141-11.084-34.251-22.215a1.439,1.439,0,0,0-1.841-.018q-17.066,11.115-34.175,22.163a1.566,1.566,0,0,0-.81,1.524q.036,14.776.017,29.552c0,.231,0,.461,0,.691-.013,1.152-.475,1.743-1.336,1.714-.811-.028-1.265-.635-1.266-1.714q0-12.875,0-25.75v-4.19c-.249-.013-.439-.033-.629-.032a4.634,4.634,0,0,1-4.686-3.424,4.624,4.624,0,0,1,2.087-5.442q9.834-6.4,19.683-12.772c6.586-4.272,13.184-8.526,19.75-12.828a3.742,3.742,0,0,1,4.531-.017q12.74,8.308,25.516,16.56c1.178.764,1.479,1.427,1.007,2.193-.487.789-1.243.79-2.45.007q-12.693-8.23-25.378-16.473a1.438,1.438,0,0,0-1.838-.047q-19.554,12.726-39.142,25.4a2.287,2.287,0,0,0-1.363,2.119,2.267,2.267,0,0,0,1.286,1.916,2.118,2.118,0,0,0,2.253-.307q7.928-5.15,15.864-10.288c6.563-4.255,13.137-8.491,19.679-12.779a3.8,3.8,0,0,1,4.608-.009q17.536,11.418,35.1,22.784a10.032,10.032,0,0,0,.878.539,2,2,0,0,0,2.745-.778,2.023,2.023,0,0,0-.5-2.838c-.975-.7-2-1.331-3.014-1.986-1.73-1.123-3.466-2.238-5.194-3.365-.9-.586-1.131-1.311-.669-2.01.452-.683,1.209-.759,2.1-.182,2.625,1.69,5.233,3.407,7.871,5.076a5.859,5.859,0,0,1,2.355,3.063v2.074c-.111.256-.227.51-.331.769a4.543,4.543,0,0,1-3.241,2.932,12.085,12.085,0,0,1-1.866.161v40.716a17.412,17.412,0,0,1,2.589.43,4.632,4.632,0,0,1,2.849,3.21Zm-43.946-2.778h-38.823c-.315,0-.631-.015-.944.012a1.844,1.844,0,0,0-1.653,1.609,1.772,1.772,0,0,0,1.214,1.868,4.288,4.288,0,0,0,1.264.149q38.909.01,77.817.006c1.592,0,2.5-.684,2.484-1.858-.02-1.144-.9-1.785-2.449-1.785Zm20.138-2.669a44.17,44.17,0,0,0-20.187-4.6c-6.945.009-18.393,2.617-20.139,4.6Zm-12.824-16.06c8.988.434,16.531-4.354,18.065-10.585A98.565,98.565,0,0,0-1231.516,1227.92Zm-5.923-31.946v21.642l.269.117a43.54,43.54,0,0,0,2.39-3.945,13.917,13.917,0,0,0,.919-8.6A27.555,27.555,0,0,0-1237.44,1195.974Zm-2.793.242a22.917,22.917,0,0,0-3.045,6.521,15.986,15.986,0,0,0,.12,10.557,12.462,12.462,0,0,0,2.925,4.439Zm-24.057,21.213c.992,5.861,11.429,11.965,17.7,10.413A143.53,143.53,0,0,0-1264.29,1217.429Zm18.8,7.723c-2.479-5.685-11.256-10.839-15.874-9.387Zm13.432-.239c2.5-1.59,5-3.28,7.6-4.813s5.258-2.891,7.959-4.362C-1222.422,1215.491-1229.542,1219.027-1232.06,1224.913Z" transform="translate(1282.885 -1167.882)" fill="#91b40d"/>
</svg>
