<svg xmlns="http://www.w3.org/2000/svg" width="85" height="85" viewBox="0 0 85 85">
  <path id="Path_4414" data-name="Path 4414" d="M-120.36,620.922c-1.127-.023-2.255-.018-3.45-.012l-1.2,0c.132-.14.241-.255.352-.366l2.638-2.638q2.329-2.327,4.654-4.658a4.523,4.523,0,0,0,0-6.861c-1.155-1.168-2.4-2.421-3.679-3.678a4.5,4.5,0,0,0-6.741.013q-2.628,2.624-5.254,5.251c-4.093,4.092-8.326,8.323-12.5,12.471a1.661,1.661,0,0,1-1.041.445c-10,.023-20.163.022-29.994.022h-5.448v-4.865q0-5.063,0-10.126a4.693,4.693,0,0,0-1.32-3.455,4.575,4.575,0,0,0-3.4-1.214c-.354.008-.71.012-1.068.015a17.8,17.8,0,0,0-4.619.447c-4.488,1.265-7.245,4.315-8.2,9.065a.916.916,0,0,1-.081.2c-.021.042-.041.084-.059.127l-.017.041v64.923l.008.059c.059.214.114.429.169.645a13.855,13.855,0,0,0,.413,1.412,11.706,11.706,0,0,0,9.139,7.844.745.745,0,0,1,.18.081c.041.023.082.045.123.064l.045.021H-119.3l.037-.014a4.682,4.682,0,0,0,3.325-3.4,5,5,0,0,0,.115-1.107q.008-28.1,0-56.2A4.461,4.461,0,0,0-120.36,620.922Zm-6.776-14.248q.222-.216.448-.438c.475-.467.966-.949,1.477-1.4a1.093,1.093,0,0,1,1.626.038c1.4,1.354,2.79,2.742,4.129,4.124a1.091,1.091,0,0,1,.031,1.627c-.45.511-.935,1-1.4,1.474q-.225.227-.445.451Zm-61.629,76.26a8.377,8.377,0,0,1-8.716-7.836,7.948,7.948,0,0,1,6.385-8.355,15.357,15.357,0,0,1,3.021-.208h.185c.39,0,.793,0,1.189-.009a4.548,4.548,0,0,0,4.579-3.582,5.768,5.768,0,0,0,.091-1.259v-.1q.005-15.832,0-31.664v-5.626h32.672q-.234.24-.457.472c-.553.575-1.076,1.118-1.638,1.6a7.206,7.206,0,0,0-2.463,5.386c-.058,1.081-.174,2.152-.3,3.287-.049.451-.1.91-.145,1.378h-22.932l-.216,0a4.636,4.636,0,0,0-.634.018,1.649,1.649,0,0,0-1.52,1.643,1.549,1.549,0,0,0,1.432,1.617,12.151,12.151,0,0,0,1.474.055c.176,0,.351,0,.526,0,.378,0,.757.006,1.135.007.31,0,.619,0,.929,0a.712.712,0,0,1,.121.024v37.092c0,.073,0,.146,0,.219a4.289,4.289,0,0,0,.019.634,1.619,1.619,0,0,0,1.626,1.427h.012a1.587,1.587,0,0,0,1.6-1.455,7.194,7.194,0,0,0,.028-.8v-.13q0-7.507,0-15.014v-3.64h14.986v10.674l-.06,0c-.192.011-.39.022-.583.023h-2.729c-1.9,0-3.794,0-5.691.009h-.111a1.768,1.768,0,0,0-1.14.241,2.085,2.085,0,0,0-.821,1.407,2.336,2.336,0,0,0,.868,1.441,1.7,1.7,0,0,0,1.115.231h.136c9.072.008,18.023.007,27.158.006,2.285,0,3.493-1.191,3.494-3.443q.005-10.153,0-20.306v-.076a3.154,3.154,0,0,0-.1-.969,1.609,1.609,0,0,0-1.859-1.018,1.582,1.582,0,0,0-1.294,1.636v6.694h-33.319V639.748h.79q2.633,0,5.265.009c4.363.011,8.873.022,13.31-.038a54.064,54.064,0,0,0,6.118-.552l.629-.081a5.526,5.526,0,0,0,3.236-1.8c5.056-5.086,8.927-8.954,12.553-12.542a1.8,1.8,0,0,1,1.122-.459c1.944-.041,3.923-.034,5.837-.026l1.256,0c1.132,0,1.514.391,1.514,1.537q.005,27.775,0,55.55c0,1.16-.429,1.592-1.583,1.592l-13.066,0C-151.769,682.945-170.421,682.949-188.765,682.933Zm3.453-77.274a4.241,4.241,0,0,1,.019.6c0,.067,0,.134,0,.2q0,27.4,0,54.8v.174c0,.131,0,.262,0,.392-.049.937-.44,1.316-1.395,1.352-.44.017-.882.025-1.323.033a26.379,26.379,0,0,0-3.387.208,10.891,10.891,0,0,0-6.133,3.252V652.11q0-19.507,0-39.014a8.114,8.114,0,0,1,6.469-8.348,14.688,14.688,0,0,1,2.974-.234c.271,0,.541,0,.809.005s.545.005.816.005h.035A1.151,1.151,0,0,1-185.312,605.658Zm32.907,63.093V658.13h14.959v10.621Zm5.648-32.7c-1.186.131-2.412.266-3.616.333a.543.543,0,0,1-.446-.143,1.092,1.092,0,0,1-.171-.844c.119-1.1.246-2.189.374-3.295l.106-.923,4.771,4.761Q-146.248,636-146.757,636.053Zm4.008-2.219-5.63-5.67,14.788-14.788,5.68,5.645Zm11.714-23.108,1.456-1.474,5.762,5.73-1.571,1.511Z" transform="translate(200.791 -601.199)" fill="#91b40d"/>
</svg>
