<svg xmlns="http://www.w3.org/2000/svg" width="125" height="85" viewBox="0 0 125 85">
  <g id="Group_436" data-name="Group 436" transform="translate(416.116 65.812)">
    <path id="Path_4379" data-name="Path 4379" d="M-416.116,53.516c.9-1.882,2.378-2.529,4.436-2.483,4.636.1,9.275.033,13.913.033h1.308c.554-2.69,1.525-3.475,4.686-3.816a2.5,2.5,0,0,0,.118-.544c.009-3.851.024-7.7-.016-11.552a1.421,1.421,0,0,0-.578-1.026,2.54,2.54,0,0,1-1.281-2.348c-.008-1.557-.007-3.113-.006-4.67,0-2.776.447-3.282,3.311-3.61V16.076c0-3.4.336-3.811,3.683-4.436V8.866c-.407-.026-.8-.046-1.188-.075a1.761,1.761,0,0,1-1.714-1.749,1.793,1.793,0,0,1,1.679-1.915q3.17-.1,6.345,0a1.753,1.753,0,0,1,1.658,1.917,1.728,1.728,0,0,1-1.7,1.745c-.358.033-.718.041-1.156.064v2.868c.294.026.568.048.841.074A2.7,2.7,0,0,1-379,14.83c.012,2.863,0,5.727,0,8.661.46.055.852.087,1.237.152a2.285,2.285,0,0,1,2.111,2.309,53.487,53.487,0,0,1-.041,6.017c-.061.73-.769,1.414-1.211,2.1-.178.277-.623.5-.626.752-.04,4.127-.028,8.254-.028,12.479,2.628-.1,4.335.92,4.8,3.766h1.254q5.065,0,10.13,0c1.416,0,2.274.675,2.323,1.8.051,1.151-.841,1.906-2.323,1.911-3.74.012-7.481,0-11.33,0v5.491h38.192V54.778h-1.364q-8.36,0-16.721,0a10.841,10.841,0,0,1-1.219-.034,1.689,1.689,0,0,1-1.616-1.819,1.737,1.737,0,0,1,1.619-1.837,10.338,10.338,0,0,1,1.463-.021h17.85c.435-2.752,2.1-3.9,4.821-3.754V41.84c0-2.212.03-4.425-.029-6.636a1.574,1.574,0,0,0-.639-1.1,2.608,2.608,0,0,1-1.261-2.363c-.006-1.516,0-3.032,0-4.547,0-2.841.457-3.366,3.371-3.7V18.536c0-1.188-.005-2.376,0-3.564.011-2.117.865-3.018,3-3.182.2-.015.391-.043.626-.069.027-.234.068-.432.071-.63.008-.694,0-1.389,0-2.222-.441-.027-.829-.044-1.216-.076a1.728,1.728,0,0,1-1.722-1.723,1.747,1.747,0,0,1,1.633-1.937c2.113-.071,4.231-.066,6.345-.007a1.845,1.845,0,0,1,1.718,1.895A1.864,1.864,0,0,1-319.605,8.8c-.319.027-.639.033-1.056.054v2.862c.37.035.724.056,1.076.1a2.72,2.72,0,0,1,2.567,2.889c.024,2.9.007,5.809.007,8.788.491.066.923.1,1.346.183a2.08,2.08,0,0,1,1.9,2.067c.064,2.168.111,4.345-.04,6.5-.044.64-.768,1.234-1.189,1.844-.189.274-.57.531-.572.8-.039,3.646-.028,7.292-.029,10.938v1.456c2.638-.075,4.381.966,4.782,3.78h4.864c3.743,0,7.486-.011,11.229,0a3.369,3.369,0,0,1,3.593,3.6c.013,1.884.008,3.769,0,5.653a3.4,3.4,0,0,1-3.69,3.753q-7.323.015-14.646,0h-1.4c-.768,2.605-2.674,3.22-5.117,3.176-4.555-.082-9.114-.068-13.669,0-2.341.032-4.036-.757-4.768-3.14h-38.4c-.736,2.406-2.475,3.179-4.855,3.142-4.6-.071-9.194-.021-13.791-.021-2.882,0-3.679-.495-4.991-3.153-2.189,0-4.421.006-6.652,0-1.416-.006-2.244-.689-2.26-1.836s.8-1.857,2.219-1.868c2.194-.018,4.389,0,6.69,0v-5.49h-15.927v5.432c.59.028,1.149.031,1.7.086a1.669,1.669,0,0,1,1.642,1.652,1.725,1.725,0,0,1-1.43,1.986,4.612,4.612,0,0,1-5.651-2.406Zm39.532-2.378H-392.6V63.32h16.017Zm61.988,0h-16.015V63.325H-314.6Zm3.8,3.707V60.3h15.946V54.84Zm-70.578-7.57V34.412h-6.408V47.271Zm55.483-.029h6.428V34.4h-6.428ZM-379.5,30.55V27.473h-10.195V30.55Zm51.714.008h10.25V27.508h-10.25Zm-54.956-7.046V15.689h-3.712v7.824Zm58.241-7.854v7.854h3.677V15.659Z" transform="translate(0 -48.07)" fill="#91b40d"/>
    <path id="Path_4380" data-name="Path 4380" d="M-321.506-63.3c0,1.525-.569,2.362-1.682,2.473-1.2.12-1.988-.746-2.037-2.233-.059-1.755.671-2.8,1.916-2.745C-322.17-65.76-321.506-64.837-321.506-63.3Z" transform="translate(-61.233 0)" fill="#91b40d"/>
    <path id="Path_4381" data-name="Path 4381" d="M-131.142-63.177c-.005,1.462-.546,2.4-1.594,2.391-.591-.006-1.585-.367-1.686-.753a7.255,7.255,0,0,1-.092-3.194c.085-.418,1.024-.881,1.608-.932C-131.783-65.763-131.136-64.733-131.142-63.177Z" transform="translate(-189.633 -0.095)" fill="#91b40d"/>
    <path id="Path_4382" data-name="Path 4382" d="M-321.507-39.539c-.007,1.882-1.256,2.95-2.647,2.257-1.039-.517-1.082-1.476-1.075-2.46a2.089,2.089,0,0,1,1.152-2.173C-322.68-42.542-321.5-41.451-321.507-39.539Z" transform="translate(-61.232 -16.084)" fill="#91b40d"/>
    <path id="Path_4383" data-name="Path 4383" d="M-131.409-39.406a8.073,8.073,0,0,1-1.308,2.064,1.536,1.536,0,0,1-2.223-.4,3.441,3.441,0,0,1-.029-3.609,1.694,1.694,0,0,1,2.14-.529,2.14,2.14,0,0,1,1.133,2.3Z" transform="translate(-189.077 -16.104)" fill="#91b40d"/>
    <path id="Path_4384" data-name="Path 4384" d="M-371.153-33.807a3.539,3.539,0,0,1,2.7,2.8,1.874,1.874,0,0,1-1.906,1.757,3.5,3.5,0,0,1-2.688-2.816A1.811,1.811,0,0,1-371.153-33.807Z" transform="translate(-29.205 -21.701)" fill="#91b40d"/>
    <path id="Path_4385" data-name="Path 4385" d="M-88.4-29.243a1.876,1.876,0,0,1-1.824-1.841,3.556,3.556,0,0,1,2.789-2.72,1.811,1.811,0,0,1,1.81,1.828A3.515,3.515,0,0,1-88.4-29.243Z" transform="translate(-219.364 -21.704)" fill="#91b40d"/>
    <path id="Path_4386" data-name="Path 4386" d="M-258.8-48.784a3.512,3.512,0,0,1-2.748,2.752,1.915,1.915,0,0,1-1.812-1.867,3.561,3.561,0,0,1,2.783-2.734A1.782,1.782,0,0,1-258.8-48.784Z" transform="translate(-102.914 -10.293)" fill="#91b40d"/>
    <path id="Path_4387" data-name="Path 4387" d="M-195.232-47.914a1.921,1.921,0,0,1-1.794,1.886,3.527,3.527,0,0,1-2.765-2.735,1.779,1.779,0,0,1,1.758-1.866A3.549,3.549,0,0,1-195.232-47.914Z" transform="translate(-145.736 -10.295)" fill="#91b40d"/>
    <path id="Path_4388" data-name="Path 4388" d="M-181.349-33.805a3.363,3.363,0,0,1,2.731,2.739,1.8,1.8,0,0,1-1.806,1.822A3.62,3.62,0,0,1-183.2-32,1.856,1.856,0,0,1-181.349-33.805Z" transform="translate(-156.915 -21.703)" fill="#91b40d"/>
    <path id="Path_4389" data-name="Path 4389" d="M-353.524-12.576a3.36,3.36,0,0,1-2.694-2.781,1.851,1.851,0,0,1,1.852-1.8,3.622,3.622,0,0,1,2.709,2.816A1.81,1.81,0,0,1-353.524-12.576Z" transform="translate(-40.615 -32.746)" fill="#91b40d"/>
    <path id="Path_4390" data-name="Path 4390" d="M-104.174-17.17a1.853,1.853,0,0,1,1.8,1.859A3.431,3.431,0,0,1-105-12.588a1.815,1.815,0,0,1-1.932-1.7A3.563,3.563,0,0,1-104.174-17.17Z" transform="translate(-208.029 -32.74)" fill="#91b40d"/>
    <path id="Path_4391" data-name="Path 4391" d="M-275.434-31.971a3.611,3.611,0,0,1-2.8,2.726,1.8,1.8,0,0,1-1.779-1.849,3.363,3.363,0,0,1,2.757-2.712A1.851,1.851,0,0,1-275.434-31.971Z" transform="translate(-91.692 -21.703)" fill="#91b40d"/>
    <path id="Path_4392" data-name="Path 4392" d="M-321.219-15.57a7.386,7.386,0,0,1-1.209,2.023,1.675,1.675,0,0,1-2.606-.932,5.763,5.763,0,0,1-.126-1.9,1.733,1.733,0,0,1,1.854-1.784,1.822,1.822,0,0,1,1.821,1.848c.019.2,0,.4,0,.6Z" transform="translate(-61.261 -32.068)" fill="#91b40d"/>
    <path id="Path_4393" data-name="Path 4393" d="M-131.62-15.667c-.014,1.587-.667,2.419-1.887,2.4-1.31-.018-1.954-1.051-1.832-2.938a1.84,1.84,0,0,1,2.066-1.96C-132.138-18.058-131.606-17.253-131.62-15.667Z" transform="translate(-189.156 -32.064)" fill="#91b40d"/>
    <path id="Path_4394" data-name="Path 4394" d="M-385.3-47.919a1.816,1.816,0,0,1-1.76,1.882,3.641,3.641,0,0,1-2.8-2.733,1.873,1.873,0,0,1,1.8-1.869A3.424,3.424,0,0,1-385.3-47.919Z" transform="translate(-17.804 -10.288)" fill="#91b40d"/>
    <path id="Path_4395" data-name="Path 4395" d="M-68.728-48.806a3.646,3.646,0,0,1-2.758,2.78,1.822,1.822,0,0,1-1.8-1.845,3.433,3.433,0,0,1,2.722-2.759A1.867,1.867,0,0,1-68.728-48.806Z" transform="translate(-230.846 -10.295)" fill="#91b40d"/>
    <path id="Path_4396" data-name="Path 4396" d="M-294.189-17.161a1.837,1.837,0,0,1,1.806,1.865,3.387,3.387,0,0,1-2.66,2.716,1.867,1.867,0,0,1-1.913-1.763A3.7,3.7,0,0,1-294.189-17.161Z" transform="translate(-80.277 -32.746)" fill="#91b40d"/>
    <path id="Path_4397" data-name="Path 4397" d="M-161.663-14.358a1.863,1.863,0,0,1-1.9,1.78,3.367,3.367,0,0,1-2.677-2.7,1.843,1.843,0,0,1,1.791-1.881A3.687,3.687,0,0,1-161.663-14.358Z" transform="translate(-168.341 -32.747)" fill="#91b40d"/>
  </g>
</svg>
